<svg id="Camada_1" data-name="Camada 1" xmlns="http://www.w3.org/2000/svg" viewBox="0 0 1920 570.04"><defs><style>.cls-1{fill:#148ba6;}.cls-2{fill:#0d0d0d;}</style></defs><path class="cls-1" d="M299.56,127.77,182.89,318.46a12.76,12.76,0,0,1-10.95,6.14h-.11a12.73,12.73,0,0,1-11-6.29l-27.95-47.2a12.89,12.89,0,0,1,0-13L246.08,64.47A12.8,12.8,0,0,1,268,64.12l31.47,50.15A12.74,12.74,0,0,1,299.56,127.77Z"/><path class="cls-1" d="M454.39,127.73,260.2,454.7A12.82,12.82,0,0,1,249.14,461a12.67,12.67,0,0,1-11-6.33l-27.83-47a12.91,12.91,0,0,1-.08-13L400.83,64.62a12.69,12.69,0,0,1,10.86-6.4h.24a12.68,12.68,0,0,1,10.86,6l31.44,50.1A12.78,12.78,0,0,1,454.39,127.73Z"/><path class="cls-1" d="M607.39,127.73l-194.22,327a12.82,12.82,0,0,1-22.09,0l-27.83-47a12.93,12.93,0,0,1,0-13L553.79,64.62a12.82,12.82,0,0,1,22-.38l31.48,50.1A12.87,12.87,0,0,1,607.39,127.73Z"/><path class="cls-1" d="M158.09,139.65a66.1,66.1,0,0,1-38,33.92l-14.21,5-.66-1.82a66.67,66.67,0,0,1,41-84.81l14.21-5,.66,1.83A66,66,0,0,1,158.09,139.65Z"/><path class="cls-2" d="M909.63,466.36l-63-125.69L783,466.36H703.43l-89-189.95h81.28L747.42,413.9l65.1-137.49h76L948,413.9,1006,276.41h74.24l-91.48,190Z"/><path class="cls-2" d="M1153.84,402.11c3.93,22.17,21,31.43,55.27,31.43,25.54,0,42.93-6.74,51.63-16.84l50.5,13.47c-12.62,26.66-46,39.56-101.84,39.56-71.27,0-109.43-19.64-109.43-80,0-60.61,38.16-80,109.43-80,85.57,0,107.74,24.42,107.74,84.74v7.57ZM1263,371.53C1258.5,353,1240.26,346,1209.11,346s-49.1,7-53.87,25.53Z"/><path class="cls-2" d="M1380.57,265.19h47.14v60.89c13.75-8.42,34.51-16.28,71-16.28,57,0,93.43,18.8,93.43,80,0,60.6-36.48,80-93.43,80-67.06,0-104.94-17.11-118.13-25.53Zm47.14,159.65c18,7.86,40.4,12.62,66.21,12.62,33.95,0,54.16-14.87,54.16-47.69,0-35.07-20.49-47.42-61.73-47.42-28.34,0-46.57,7.29-58.64,19.64Z"/><path class="cls-2" d="M1624.42,313.17h51.34l51.35,107.46,49.94-107.46h47.14L1749,466.36c-13.75,28.06-33.67,45.46-71,45.46-30,0-45.46-9.26-51.63-16.55l18-26.66c6.45,5.89,16.27,10.1,29.18,10.1,14.31,0,26.37-5.61,32.82-16.83Z"/></svg>