<!-- Generator: Adobe Illustrator 22.1.0, SVG Export Plug-In  -->
<svg version="1.1"
	 xmlns="http://www.w3.org/2000/svg" xmlns:xlink="http://www.w3.org/1999/xlink" xmlns:a="http://ns.adobe.com/AdobeSVGViewerExtensions/3.0/"
	 x="0px" y="0px" width="531.2px" height="531.199px" viewBox="0 0 531.2 531.199"
	 style="enable-background:new 0 0 531.2 531.199;" xml:space="preserve">
<style type="text/css">
	.st0{fill:#BF2C37;}
	.st1{fill:#FFFFFF;}
</style>
<defs>
</defs>
<g>
	<path class="st0" d="M531.2,0v531.191c-177.067,0-354.134,0.02-531.2,0L0.011,0.02C177.066,0.01,354.145,0.01,531.2,0"/>
	<path class="st1" d="M370.836,223.228l-43.581-105.215l-34.9,14.459l-26.736-26.738l-26.735,26.738l-34.898-14.455l-43.569,105.201
		l105.202,43.578L370.836,223.228z M228.774,164.387l36.839-15.265l36.849,15.26l-36.842,88.96L228.774,164.387z M324.464,124.742
		l39.643,95.7l-88.97,36.848l71.023-71.023l-49.867-49.852L324.464,124.742z M338.849,186.267l-68.06,68.052l38.401-92.73
		l-36.843-15.259l18.788-7.779L338.849,186.267z M265.619,113.039l21.573,21.571l-21.573,8.936l-21.566-8.936L265.619,113.039z
		 M167.138,220.438l39.638-95.689l28.165,11.67l-49.856,49.849l71.026,71.023L167.138,220.438z M192.39,186.267l47.718-47.705
		l18.785,7.769l-36.844,15.265l38.41,92.723L192.39,186.267z"/>
	<path class="st1" d="M160.012,412.24c-1.94-2.197-4.438-3.664-6.5-5.739c-1.203-1.219-1.926-2.256-1.891-4.084
		c0.162-2.506,1.994-3.906,4.569-3.875c1.157,0.009,2.245,0.194,3.237,0.796c0.733,0.468,1.165,1.103,1.364,1.933
		c0.072,0.31,0.131,0.619,0.162,0.931c0.023,0.203,0.072,0.41,0.261,0.527c0.149,0.049,0.121-0.144,0.126-0.234l0.315-4.668
		c-0.023-0.063-0.072-0.08-0.131-0.09c-0.18-0.014-0.364-0.005-0.553-0.023c-0.392-0.045-0.784-0.125-1.171-0.222
		c-1.162-0.246-2.345-0.341-3.52-0.296c-3.425,0.13-6.288,1.86-6.968,5.137c-0.266,1.48-0.153,2.803,0.378,4.167
		c1.166,2.755,3.611,4.545,5.83,6.41c1.377,1.166,3.007,2.403,3.718,4.138c0.918,2.354,0.211,5.23-2.039,6.464
		c-2.021,1.035-5.334,0.732-7.022-1.055c-0.797-0.945-1.031-2.057-1.049-3.268c-0.009-0.221,0.019-0.423-0.22-0.536
		c-0.068-0.009-0.099,0-0.121,0.073l-0.419,5.272c0.014,0.192,0.153,0.296,0.297,0.404c0.711,0.468,1.751,0.692,2.575,0.841
		c2.016,0.352,4.128,0.311,6.09-0.324c0.905-0.319,1.729-0.765,2.472-1.391c2.008-1.742,2.768-4.455,2.39-7.08
		C161.943,414.818,161.083,413.468,160.012,412.24z"/>
	<path class="st1" d="M158.531,306.288c0.805-0.049,1.616,0.09,2.151-0.613c0.126-0.226,0.171-0.399-0.121-0.472l-24.492-0.005
		c-0.171,0.158-0.275,0.225-0.189,0.468c0.338,0.517,0.864,0.581,1.445,0.585c2.016,0,5.32-0.194,5.672,2.507l0.004,0.036
		c0,1.577-0.458,3.178-1.017,4.66l-24.353,62.595l-23.893-63.511c-0.424-1.152-0.846-2.34-0.905-3.582
		c0-1.268,0.842-2.08,2.161-2.418c1.085-0.243,2.408-0.288,3.515-0.288c0.571-0.005,0.95-0.09,1.291-0.581
		c0.117-0.229,0.14-0.395-0.135-0.468H69.805c-0.18,0.049-0.211,0.116-0.184,0.302c0.297,0.774,0.783,0.742,1.512,0.76
		c4.235,0.18,7.531,1.152,9.759,4.592c0.819,1.417,1.494,2.866,2.125,4.389l32.108,76.928l36.142-81.784
		C152.567,307.452,155.596,306.484,158.531,306.288z"/>
	<path class="st1" d="M196.662,398.858c0.239-0.325,0.571-0.42,0.954-0.492c0.406-0.053,0.801-0.093,1.211-0.111
		c0.131-0.009,0.221-0.059,0.302-0.17c0.036-0.064,0.04-0.146-0.054-0.146c-3.083,0-6.001,0-9.089,0
		c-0.085,0-0.085,0.082-0.049,0.146c0.08,0.111,0.171,0.161,0.301,0.17c0.405,0.019,0.806,0.059,1.211,0.111
		c0.382,0.073,0.711,0.167,0.954,0.492c0.315,0.431,0.41,1.075,0.41,1.611c-0.018,2.845-0.018,5.699-0.018,8.548h-15.142
		c0-2.849-0.009-5.704-0.023-8.548c0-0.536,0.094-1.18,0.41-1.611c0.243-0.325,0.572-0.42,0.954-0.492
		c0.401-0.053,0.797-0.093,1.206-0.111c0.131-0.009,0.221-0.059,0.307-0.17c0.036-0.064,0.036-0.146-0.046-0.146
		c-3.087,0-6.005,0-9.101,0c-0.081,0-0.081,0.082-0.049,0.146c0.09,0.111,0.184,0.161,0.301,0.17
		c0.41,0.019,0.815,0.059,1.216,0.111c0.382,0.073,0.711,0.167,0.949,0.492c0.316,0.431,0.41,1.075,0.41,1.611
		c-0.032,7.238-0.019,14.458,0,21.715c0,0.536-0.094,1.171-0.41,1.601c-0.239,0.325-0.567,0.42-0.949,0.492
		c-0.401,0.062-0.806,0.099-1.216,0.111c-0.117,0.014-0.211,0.064-0.301,0.167c-0.032,0.062-0.032,0.149,0.049,0.149h9.101
		c0.081,0,0.081-0.087,0.046-0.149c-0.086-0.104-0.176-0.153-0.307-0.167c-0.41-0.012-0.805-0.049-1.206-0.111
		c-0.382-0.073-0.711-0.167-0.954-0.492c-0.315-0.431-0.41-1.065-0.41-1.601c0.013-3.867,0.023-7.715,0.023-11.568h15.142
		c0,3.853,0.005,7.701,0.018,11.568c0,0.536-0.094,1.171-0.41,1.601c-0.243,0.325-0.571,0.42-0.954,0.492
		c-0.405,0.062-0.806,0.099-1.211,0.111c-0.13,0.014-0.221,0.064-0.301,0.167c-0.036,0.062-0.036,0.149,0.049,0.149h9.089
		c0.094,0,0.09-0.087,0.054-0.149c-0.081-0.104-0.171-0.153-0.302-0.167c-0.41-0.012-0.805-0.049-1.211-0.111
		c-0.382-0.073-0.715-0.167-0.954-0.492c-0.315-0.431-0.405-1.065-0.405-1.601c0.013-7.257,0.027-14.477,0-21.715
		C196.257,399.933,196.347,399.289,196.662,398.858z"/>
	<path class="st1" d="M386.857,411.538h-8.754c-0.212,0.053-0.153,0.22-0.033,0.35c0.091,0.078,0.198,0.118,0.33,0.118
		c0.581,0,1.112,0.062,1.66,0.269c0.757,0.352,0.897,0.805,0.977,1.562c0.049,0.55,0.108,1.098,0.108,1.656l0.009,6.258
		c-0.009,0.355-0.139,0.692-0.41,0.946c-0.805,0.657-2.012,0.742-3.012,0.855c-0.832,0.111-1.71,0.085-2.543,0.012
		c-2.512-0.251-4.753-1.039-6.774-2.565c-3.003-2.372-4.759-5.951-5.064-9.773c-0.316-4.762,1.07-9.606,5.959-11.734
		c3.165-1.276,7.621-1.09,10.74,0.133c0.788,0.338,1.494,0.703,2.153,1.251c0.418,0.406,0.725,0.771,0.935,1.31
		c0.207,0.533,0.297,1.076,0.379,1.626c0.026,0.201,0.04,0.414,0.166,0.576c0.122,0.125,0.316,0.139,0.347-0.028
		c0.158-2.016,0.333-4.042,0.503-6.063c-0.062-0.262-0.418-0.252-0.633-0.262c-0.446-0.013-0.878-0.071-1.319-0.121
		c-0.895-0.099-1.764-0.31-2.656-0.449c-3.525-0.528-7.158-0.601-10.6,0.409c-6.294,2.026-9.327,7.192-9.403,13.396
		c0.062,5.758,3.06,10.628,8.449,12.784c2.201,0.833,4.307,1.161,6.657,1.296c0.945,0.046,1.889,0.028,2.826-0.045
		c1.152-0.107,2.287-0.284,3.399-0.553c0.832-0.226,1.62-0.496,2.389-0.852c0.77-0.373,0.72-0.864,0.748-1.683l-0.009-6.62
		c0-0.592,0.05-1.194,0.095-1.784c0.04-0.307,0.095-0.595,0.194-0.886c0.201-0.491,0.463-0.689,1.013-0.811
		c0.314-0.053,0.98-0.031,1.206-0.229C387.005,411.758,387.069,411.591,386.857,411.538z"/>
	<path class="st1" d="M350.369,397.938h-8.189c-0.229,0.068-0.116,0.279,0,0.396c0.181,0.139,0.59,0.09,0.816,0.099
		c2.187,0.149,2.606,1.161,2.664,3.314v17.739c-6.41-6.82-12.775-13.676-19.194-20.487c-0.449-0.437-0.9-0.895-1.391-1.287
		c-0.203-0.166-0.472-0.428-0.746-0.342c-0.415,0.13-0.37,0.873-0.37,1.22v22.48c-0.014,0.455-0.026,0.918-0.063,1.372
		c-0.13,1.208-0.494,1.676-1.764,1.778c-0.243,0.019-0.468-0.012-0.675,0.167c-0.108,0.121-0.194,0.325,0.023,0.325h8.192
		c0.234-0.068,0.112-0.279,0.005-0.393c-0.184-0.143-0.595-0.093-0.824-0.102c-2.188-0.149-2.602-1.158-2.66-3.308v-17.746
		c6.469,6.877,12.748,13.639,19.198,20.487c0.451,0.437,0.895,0.89,1.386,1.292c0.212,0.161,0.472,0.418,0.743,0.337
		c0.414-0.136,0.378-0.878,0.378-1.225v-22.47c0.014-0.463,0.026-0.918,0.054-1.377c0.13-1.208,0.499-1.676,1.768-1.778
		c0.243-0.019,0.472,0.012,0.671-0.172C350.504,398.136,350.589,397.938,350.369,397.938z"/>
	<path class="st1" d="M461.588,369.585c-0.297,0.014-0.486,0.026-0.711,0.231c-0.163,0.198-0.269,0.463-0.359,0.759
		c-0.873,3.179-1.671,6.343-5.087,7.814c-4.443,1.676-12.716,1.437-17.213,0.245c-3.912-1.041-4.466-3.926-4.483-7.644
		l-0.239-52.188c0-1.395,0.234-3.088,1.067-4.222c0.626-0.843,1.497-1.086,2.51-1.298c1.055-0.149,2.112-0.238,3.175-0.279
		c0.345-0.028,0.593-0.17,0.801-0.441c0.104-0.184,0.113-0.386-0.125-0.386l-23.925,0.003c-0.221,0.059-0.203,0.198-0.099,0.382
		c0.229,0.302,0.499,0.423,0.869,0.441c1.259,0,2.524,0.118,3.745,0.418c2.804,0.838,3.407,2.684,3.407,5.38l-0.283,57.125
		c-0.031,0.731-0.135,1.608-0.383,2.431c-0.274,0.87-0.72,1.669-1.377,2.174c-0.238,0.18-0.522,0.325-0.833,0.434
		c-0.406,0.102-0.81,0.173-1.22,0.232h-0.009l0.099,0.033c-0.661,0.085-1.327,0.099-1.882,0.122
		c-0.296,0.025-0.503,0.121-0.688,0.369c-0.132,0.161-0.231,0.369,0.013,0.449l5.55-0.009l0.063,0.023l0.049-0.014h5.708
		l0.161,0.014l-0.008-0.014h29.384L461.588,369.585z"/>
	<path class="st1" d="M415.455,312.176h-20.933l-0.144,0.031l-0.045,0.142l0.033,0.108l0.054,0.096l0.053,0.084l0.082,0.078
		l0.067,0.077l0.077,0.043l0.071,0.037l0.064,0.04l0.076,0.028l0.073,0.017l0.076,0.023l0.077,0.003l0.071,0.014h0.077h0.711
		l0.099,0.005h0.099l0.099,0.009l0.095,0.005l0.099,0.017l0.094,0.019l0.095,0.014l0.104,0.026h0.135l0.118,0.005l0.111,0.005
		l0.118,0.005l0.116,0.009l0.118,0.005l0.113,0.009l0.111,0.003l0.118,0.019l0.104,0.009l0.099,0.019l0.099,0.013l0.085,0.014
		l0.08,0.026l0.068,0.023l0.09,0.026l0.557,0.127l0.51,0.149l0.454,0.166l0.406,0.203l0.364,0.22l0.311,0.229l0.252,0.257
		l0.215,0.285l0.095,0.152l0.09,0.163l0.087,0.172l0.071,0.173l0.073,0.195l0.071,0.198l0.064,0.208l0.059,0.223l0.049,0.226
		l0.045,0.243l0.045,0.252l0.036,0.26l0.031,0.266l0.023,0.274l0.017,0.293l0.014,0.297v0.279l0.023,0.283l0.031,0.297l0.019,0.283
		l0.013,0.316l0.019,0.319l0.014,0.333l0.014,0.342l0.012,0.356l0.009,0.364l0.005,0.383l0.019,0.392l0.008,0.396l0.005,0.413v0.424
		v0.431v0.446c0,9.134,0.118,17.956-0.005,27.09c-0.238,15.02-6.153,28.557-20.94,28.326c-15.39-0.437-20.36-12.624-20.4-28.349
		v-27.067v-0.446v-0.431l0.009-0.424l0.009-0.413l0.009-0.396l0.009-0.392l0.008-0.383l0.005-0.364l0.014-0.356l0.014-0.342
		l0.012-0.333l0.019-0.319l0.019-0.316l0.022-0.283l0.014-0.297l0.036-0.283v-0.279l0.019-0.293l0.031-0.293l0.033-0.279
		l0.036-0.269l0.05-0.266l0.04-0.257l0.045-0.242l0.054-0.245l0.059-0.22l0.067-0.217l0.063-0.211l0.064-0.198l0.076-0.194
		l0.068-0.184l0.09-0.177l0.076-0.158l0.193-0.297l0.221-0.269l0.251-0.234l0.293-0.212l0.325-0.17l0.373-0.149l0.401-0.111
		l0.44-0.087l0.181-0.022l0.175-0.028l0.163-0.026l0.166-0.023l0.149-0.022l0.144-0.028l0.127-0.017l0.125-0.023l0.116-0.019
		l0.104-0.022l0.113-0.019l0.099-0.017l0.108-0.005l0.095-0.009h0.094l0.099-0.005h0.279h0.076l0.077-0.014l0.071-0.003l0.077-0.023
		l0.067-0.017l0.082-0.028l0.057-0.037l0.073-0.04l0.076-0.053l0.077-0.068l0.071-0.078l0.064-0.084l0.054-0.096l0.026-0.102
		l-0.049-0.149l-0.149-0.031h-23.172c-0.293,0-0.181,0.282-0.045,0.461c0.225,0.248,0.472,0.347,0.81,0.361
		c1.459,0,2.84,0.135,4.245,0.559c2.191,0.827,2.665,2.394,2.836,4.366c0.158,2.214,0.229,4.434,0.229,6.648v26.85
		c0,18.992,8.095,32.996,29.007,32.286c17.916-0.856,26.257-12.169,26.932-32.064c0.265-9.129,0.05-17.942,0.05-27.071v-0.446
		v-0.431l0.009-0.424l0.003-0.413l0.009-0.396l0.005-0.392l0.009-0.383l0.014-0.364l0.009-0.356l0.012-0.342l0.014-0.333
		l0.019-0.319l0.022-0.316l0.014-0.283l0.022-0.297l0.028-0.283v-0.274l0.022-0.297l0.033-0.293l0.036-0.279l0.031-0.266l0.045-0.26
		l0.042-0.252l0.053-0.243l0.049-0.238l0.05-0.22l0.073-0.217l0.059-0.208l0.076-0.198l0.064-0.189l0.09-0.175l0.071-0.166
		l0.087-0.155l0.189-0.291l0.215-0.257l0.252-0.243l0.302-0.206l0.328-0.186l0.364-0.167l0.401-0.125l0.451-0.104l0.189-0.05
		l0.166-0.04l0.158-0.036l0.158-0.026l0.149-0.028l0.139-0.022l0.125-0.019l0.122-0.009l0.116-0.019l0.108-0.017h0.113l0.108-0.009
		l0.099-0.005h0.093l0.099-0.005h0.096h0.283h0.081l0.071-0.014l0.082-0.003l0.066-0.023l0.078-0.017l0.071-0.028l0.063-0.037
		l0.076-0.04l0.073-0.053l0.076-0.068l0.078-0.078l0.062-0.084l0.045-0.096l0.033-0.102l-0.054-0.149L415.455,312.176z"/>
	<path class="st1" d="M223.544,397.152c0,0-0.013,0-0.018,0h-0.018c-7.846,0.125-14.278,6.112-14.278,14.161
		c0,9.344,7.148,14.153,14.296,14.153s14.302-4.809,14.302-14.153C237.827,403.264,231.399,397.277,223.544,397.152z
		 M223.796,423.966c-0.176,0-0.355,0-0.536,0c-7.197-0.149-10.389-5.973-10.389-12.654c0-6.689,3.192-12.522,10.389-12.671
		c0.18,0,0.36,0,0.536,0c7.197,0.149,10.389,5.982,10.389,12.671C234.185,417.993,230.993,423.817,223.796,423.966z"/>
	<path class="st1" d="M335.712,383.75c6.334-5.501,8.73-14.061,7.54-22.353c-0.782-5.127-3.487-9.375-6.851-13.284
		c-6.126-6.932-14.017-11.528-20.516-18.082c-3.791-3.841-6.082-7.094-5.965-12.857c0.505-7.931,6.294-12.336,14.413-12.247
		c3.633,0.031,7.082,0.629,10.227,2.543c2.287,1.459,3.638,3.466,4.29,6.08c0.212,0.956,0.415,1.954,0.5,2.936
		c0.081,0.635,0.234,1.291,0.819,1.657c0.477,0.142,0.373-0.437,0.392-0.748l0.99-14.715c-0.057-0.215-0.197-0.238-0.395-0.271
		c-0.585-0.049-1.166-0.026-1.751-0.084c-1.242-0.139-2.458-0.415-3.678-0.691c-3.673-0.805-7.382-1.056-11.127-0.926
		c-10.785,0.415-19.807,5.848-21.958,16.174c-0.841,4.689-0.486,8.858,1.211,13.169c3.659,8.654,11.389,14.334,18.356,20.185
		c4.367,3.682,9.502,7.613,11.749,13.077c2.871,7.415,0.666,16.483-6.442,20.364c-6.382,3.272-16.812,2.318-22.147-3.305
		c-2.52-2.998-3.263-6.513-3.317-10.311c-0.005-0.708,0.059-1.338-0.685-1.697c-0.225-0.033-0.3,0.009-0.373,0.229l-1.315,16.637
		c0.037,0.612,0.451,0.931,0.918,1.268c2.228,1.449,5.524,2.174,8.13,2.657c6.369,1.075,12.996,0.985,19.194-1.027
		C330.789,387.126,333.39,385.709,335.712,383.75z"/>
	<path class="st1" d="M250.031,382.184l26.448-0.014l2.328-12.586c-0.307,0.014-0.496,0.026-0.725,0.231
		c-0.161,0.198-0.269,0.463-0.351,0.759c-0.881,3.179-1.674,6.343-5.09,7.814c-4.443,1.676-9.794,1.437-14.287,0.245
		c-3.902-1.041-4.466-3.926-4.479-7.649l-0.099-23.956c0.059-0.243,0.194-0.307,0.418-0.334c4.435-0.121,9.368,0.056,13.774,0.528
		c2.278,0.338,3.645,1.233,4.325,3.371c0.262,0.935,0.302,1.872,0.302,2.831c0.009,0.338,0.059,0.616,0.297,0.852
		c0.139,0.142,0.355,0.282,0.503,0.201c0.045-0.026,0.118-0.081,0.122-0.175l1.323-13.874c0.019-0.161-0.036-0.18-0.234-0.149
		c-0.486,0.096-1.003,0.847-1.287,1.168c-0.878,0.957-2.084,1.079-3.3,1.261c-2.821,0.381-5.692,0.331-8.538,0.338h-7.297
		c-0.44-0.028-0.421-0.338-0.437-0.717v-26.158c0.009-0.324-0.076-0.791,0.335-0.818c4.113,0,8.426-0.114,12.527,0.265
		c2.07,0.198,4.348,0.361,5.918,1.877c0.901,1.003,1.23,2.215,1.333,3.525c0.057,0.72-0.073,1.662,0.423,2.241
		c0.194,0.176,0.5,0.46,0.657,0.096l1.445-11.181c-13.085,0-26.165,0-39.25,0.003c-0.22,0.059-0.203,0.198-0.099,0.375
		c0.229,0.31,0.499,0.431,0.869,0.449c1.268,0,2.529,0.118,3.754,0.418c2.795,0.838,3.399,2.684,3.399,5.38l-0.285,57.122v0.003
		c0,1.499-0.468,3.621-1.759,4.602c-0.968,0.742-2.67,0.787-3.834,0.824c-0.297,0.025-0.514,0.121-0.698,0.369
		c-0.13,0.161-0.222,0.364,0.017,0.449l11.516-0.019L250.031,382.184z"/>
	<path class="st1" d="M237.179,370.574c-0.878,3.179-1.683,6.343-5.096,7.814c-4.438,1.676-12.72,1.437-17.218,0.245
		c-3.894-1.041-4.461-3.926-4.479-7.649l-0.235-52.184c0-1.4,0.23-3.088,1.072-4.222c0.616-0.856,1.49-1.09,2.503-1.298
		c1.054-0.149,2.112-0.238,3.174-0.283c0.342-0.026,0.594-0.166,0.801-0.445c0.099-0.176,0.108-0.378-0.122-0.378l-23.929,0.003
		c-0.225,0.059-0.198,0.198-0.104,0.375c0.229,0.31,0.504,0.431,0.873,0.449c1.26,0,2.53,0.118,3.754,0.418
		c2.795,0.838,3.403,2.684,3.403,5.38l-0.288,57.122c-0.077,1.71-0.545,4.259-2.314,4.97c-0.509,0.135-1.003,0.229-1.499,0.305
		h-0.009c-5.46-1.016-7.706-6.143-9.583-10.771l-24.137-60.548l-25.932,67.147c-1.378,3.56-5,4.33-8.363,4.33
		c-0.445,0.009-0.832,0.153-0.986,0.482c-0.072,0.167-0.05,0.29,0.117,0.33l21.206,0.003c0.27,0,0.176-0.548-0.297-0.657
		c-0.679-0.158-1.922-0.158-2.592-0.302c-3.538-0.931-2.467-4.356-1.742-7.007c0.18-0.604,0.374-1.211,0.576-1.81l6.019-17.038
		h21.269l9.138,23.457c0.396,0.81,0.288,2.481-0.882,2.543c-0.689,0.031-0.806,0.815-0.193,0.815l19.544,0.014l0.041-0.014h35.25
		l2.332-12.586c-0.302,0.014-0.491,0.026-0.72,0.231C237.363,370.013,237.251,370.278,237.179,370.574z M153.192,351.337
		l8.813-26.497l9.561,26.497H153.192z"/>
	<path class="st1" d="M308.673,398.858c0.248-0.325,0.576-0.42,0.963-0.492c0.401-0.053,0.801-0.093,1.202-0.111
		c0.13-0.009,0.229-0.059,0.307-0.17c0.04-0.064,0.04-0.146-0.045-0.146c-3.093,0-6.01,0-9.103,0c-0.085,0-0.081,0.082-0.045,0.146
		c0.082,0.111,0.177,0.161,0.307,0.17c0.401,0.019,0.805,0.059,1.211,0.111c0.382,0.073,0.715,0.167,0.949,0.492
		c0.321,0.431,0.401,1.075,0.401,1.611c-0.028,7.238-0.014,14.458,0,21.715c0,0.536-0.081,1.171-0.401,1.601
		c-0.234,0.325-0.567,0.42-0.949,0.492c-0.406,0.062-0.81,0.099-1.211,0.111c-0.13,0.014-0.225,0.064-0.307,0.167
		c-0.036,0.062-0.04,0.149,0.045,0.149h9.103c0.085,0,0.085-0.087,0.045-0.149c-0.078-0.104-0.177-0.153-0.307-0.167
		c-0.401-0.012-0.801-0.049-1.202-0.111c-0.387-0.073-0.715-0.167-0.963-0.492c-0.314-0.431-0.396-1.065-0.396-1.601
		c0.014-7.257,0.023-14.477,0-21.715C308.277,399.933,308.359,399.289,308.673,398.858z"/>
	<path class="st1" d="M284.189,397.938h-9.227c-0.153,0-0.118,0.365,0.116,0.477c0.153,0.09,0.325,0.078,0.5,0.078
		c0.451,0.005,0.9,0.077,1.324,0.207c0.796,0.297,1.048,0.976,1.12,1.854v2.242c0,3.114,0.028,10.867-0.022,16.299
		c-0.023,1.369,0.005,2.822-0.366,4.16c-0.135,0.437-0.269,0.706-0.732,0.833c-0.311,0.067-0.609,0.102-0.911,0.133
		c-0.175,0.009-0.373,0.033-0.477,0.139c-0.104,0.105-0.184,0.344,0.033,0.344h9.047c0.139,0,0.153-0.122,0.118-0.229
		c-0.054-0.149-0.167-0.221-0.321-0.245c-0.633-0.053-1.247-0.062-1.872-0.18c-0.635-0.18-0.829-0.505-0.994-1.112
		c-0.302-1.304-0.271-2.76-0.279-4.096c-0.023-2.363-0.023-4.712-0.023-7.073l1.761,0.725c5.409,1.639,10.235-3.438,9.852-8.705
		C292.135,399.573,288.583,397.966,284.189,397.938z M281.224,411.713l0.014-11.681c0.009-0.432,0.059-0.536,0.477-0.635
		c0.576-0.135,1.188-0.149,1.792-0.118c1.084,0.056,2.03,0.214,2.998,0.767c1.575,0.99,2.47,2.3,3.02,4.091
		C290.83,409.742,286.554,413.031,281.224,411.713z"/>
	<path class="st1" d="M256.606,397.938h-9.233c-0.152,0-0.116,0.365,0.115,0.477c0.166,0.09,0.328,0.078,0.513,0.078
		c0.435,0.005,0.9,0.077,1.315,0.207c0.801,0.297,1.048,0.976,1.12,1.854v2.242c0,3.114,0.026,10.867-0.023,16.299
		c-0.017,1.369,0.009,2.822-0.364,4.16c-0.144,0.437-0.274,0.706-0.739,0.833c-0.31,0.067-0.598,0.102-0.908,0.133
		c-0.176,0.009-0.365,0.033-0.469,0.139c-0.104,0.105-0.184,0.344,0.026,0.344h9.049c0.144,0,0.149-0.122,0.113-0.229
		c-0.046-0.149-0.167-0.221-0.316-0.245c-0.63-0.053-1.256-0.062-1.868-0.18c-0.64-0.18-0.828-0.505-1-1.112
		c-0.291-1.304-0.265-2.76-0.282-4.096c-0.014-2.363-0.014-4.712-0.014-7.073l1.751,0.725c2.314,0.699,4.469,0.172,6.526-1.228
		c2.318-1.818,3.546-4.533,3.331-7.477C264.547,399.573,260.992,397.966,256.606,397.938z M260.787,410.107
		c-2.241,2.298-4.293,2.314-7.147,1.606l0.005-11.681c0.009-0.432,0.062-0.536,0.486-0.635c0.576-0.135,1.188-0.149,1.79-0.118
		c1.081,0.056,2.032,0.214,2.995,0.767c1.58,0.99,2.479,2.3,3.024,4.091C262.449,406.319,262.206,408.332,260.787,410.107z"/>
</g>
</svg>