<svg id="Camada_1" data-name="Camada 1" xmlns="http://www.w3.org/2000/svg" viewBox="0 0 1446.84 1080"><defs><style>.cls-1{fill:#babdbf;}</style></defs><path class="cls-1" d="M608,267.38,366.66,661.9A26.4,26.4,0,0,1,344,674.58h-.24a26.32,26.32,0,0,1-22.64-13l-57.82-97.65a26.6,26.6,0,0,1,0-27L497.38,136.42a26.5,26.5,0,0,1,45.37-.73l65.13,103.75A26.37,26.37,0,0,1,608,267.38Z"/><path class="cls-1" d="M928.35,267.3,526.61,943.75a26.54,26.54,0,0,1-22.88,13,26.23,26.23,0,0,1-22.81-13.09l-57.57-97.24a26.7,26.7,0,0,1-.16-26.83L817.54,136.74A26.27,26.27,0,0,1,840,123.49h.48A26.28,26.28,0,0,1,863,135.93L928,239.6A26.46,26.46,0,0,1,928.35,267.3Z"/><path class="cls-1" d="M1244.89,267.3,843.07,943.75a26.52,26.52,0,0,1-45.69-.08l-57.57-97.24a26.7,26.7,0,0,1-.08-26.83L1134,136.74a26.53,26.53,0,0,1,45.45-.81l65.12,103.67A26.63,26.63,0,0,1,1244.89,267.3Z"/><path class="cls-1" d="M315.35,292a136.71,136.71,0,0,1-78.7,70.18l-29.39,10.28-1.36-3.78c-25-71.79,13-150.48,84.79-175.45l29.39-10.28,1.37,3.77A136.61,136.61,0,0,1,315.35,292Z"/></svg>