<svg id="Camada_1" data-name="Camada 1" xmlns="http://www.w3.org/2000/svg" viewBox="0 0 1920 1080"><defs><style>.cls-1{fill:#1a8aa4;}.cls-13,.cls-14,.cls-2{fill:#0c0c0c;}.cls-13,.cls-3{font-size:36px;}.cls-3,.cls-4{fill:#fff;}.cls-13,.cls-14,.cls-3,.cls-4{font-family:TussilagoLt-Regular, Tussilago;}.cls-14,.cls-4{font-size:18px;}.cls-5{letter-spacing:-0.04em;}.cls-6{letter-spacing:-0.05em;}.cls-7{letter-spacing:0.12em;}.cls-8{letter-spacing:0.12em;}.cls-9{fill:#404040;}.cls-10{fill:#737273;}.cls-11{fill:#b9bcbe;}.cls-12{fill:#f1f1f1;}</style></defs><rect class="cls-1" x="-3.81" y="-0.29" width="915.56" height="540"/><rect class="cls-2" x="-3.81" y="539.71" width="915.56" height="540"/><text class="cls-3" transform="translate(116.19 407.3)">Cor principal</text><text class="cls-4" transform="translate(116.19 443.15) scale(1.26 1)">H<tspan class="cls-5" x="17.41" y="0">e</tspan><tspan x="31.52" y="0">x: #148B</tspan><tspan class="cls-6" x="121.7" y="0">A</tspan><tspan x="137.72" y="0">6</tspan><tspan x="0" y="30.24">RGB: 20 139 166</tspan><tspan x="0" y="60.48">CMKY: 79 27 26 6 </tspan></text><text class="cls-3" transform="translate(116.19 863.86)">Cor principal</text><text class="cls-4" transform="translate(116.19 899.71) scale(1.26 1)">H<tspan class="cls-5" x="17.41" y="0">e</tspan><tspan x="31.52" y="0">x: #0D0D0D</tspan><tspan x="0" y="30.24">RGB: 13</tspan><tspan class="cls-7" x="83.45" y="30.24">	</tspan><tspan x="92.13" y="30.24">13</tspan><tspan class="cls-8" x="114.12" y="30.24">	</tspan><tspan x="122.84" y="30.24">13</tspan><tspan x="0" y="60.48">CMKY: 82 72 62 91</tspan></text><rect class="cls-9" x="911.75" y="-0.29" width="1012.32" height="270"/><rect class="cls-10" x="911.75" y="269.71" width="1012.32" height="270"/><rect class="cls-11" x="911.75" y="539.71" width="1012.32" height="270"/><rect class="cls-12" x="911.75" y="809.71" width="1012.32" height="270"/><text class="cls-3" transform="translate(1048.79 143)">Cor secund치ria</text><text class="cls-4" transform="translate(1048.79 178.85) scale(1.26 1)">H<tspan class="cls-5" x="17.41" y="0">e</tspan><tspan x="31.52" y="0">x: #404040</tspan><tspan x="0" y="30.24">RGB: 64 64 64</tspan><tspan x="0" y="60.48">CMKY: 66 56 53 57</tspan></text><text class="cls-3" transform="translate(1048.79 417.38)">Cor secund치ria</text><text class="cls-4" transform="translate(1048.79 453.22) scale(1.26 1)">H<tspan class="cls-5" x="17.41" y="0">e</tspan><tspan x="31.52" y="0">x: #727273</tspan><tspan x="0" y="30.24">RGB: 114 114 115</tspan><tspan x="0" y="60.48">CMKY: 53 43 41 26</tspan></text><text class="cls-3" transform="translate(1048.79 685.02)">Cor secund치ria</text><text class="cls-4" transform="translate(1048.79 720.87) scale(1.26 1)">H<tspan class="cls-5" x="17.41" y="0">e</tspan><tspan x="31.52" y="0">x: #BABDBF</tspan><tspan x="0" y="30.24">RGB: 186 189 191</tspan><tspan x="0" y="60.48">CMKY: 31 21 22 3</tspan></text><text class="cls-13" transform="translate(1048.79 944.59)">Cor secund치ria</text><text class="cls-14" transform="translate(1048.79 980.43) scale(1.26 1)">H<tspan class="cls-5" x="17.41" y="0">e</tspan><tspan x="31.52" y="0">x: #F2F2F2</tspan><tspan x="0" y="30.24">RGB: 242 242 242</tspan><tspan x="0" y="60.48">CMKY: 31 21 22 3</tspan></text></svg>