<svg id="Camada_1" data-name="Camada 1" xmlns="http://www.w3.org/2000/svg" viewBox="0 0 1920 570.04"><defs><style>.cls-1{fill:#148ba6;}.cls-2{fill:#f2f2f2;}</style></defs><path class="cls-1" d="M296.73,127.83,180.06,318.52a12.76,12.76,0,0,1-10.95,6.14H169a12.73,12.73,0,0,1-10.95-6.29l-28-47.2a12.89,12.89,0,0,1,0-13L243.25,64.53a12.8,12.8,0,0,1,21.93-.35l31.47,50.14A12.76,12.76,0,0,1,296.73,127.83Z"/><path class="cls-1" d="M451.56,127.79l-194.19,327a12.82,12.82,0,0,1-11.06,6.29,12.67,12.67,0,0,1-11-6.33l-27.83-47a12.91,12.91,0,0,1-.08-13L398,64.68a12.69,12.69,0,0,1,10.86-6.4h.24a12.69,12.69,0,0,1,10.86,6L451.4,114.4A12.8,12.8,0,0,1,451.56,127.79Z"/><path class="cls-1" d="M604.56,127.79l-194.22,327a12.82,12.82,0,0,1-22.09,0l-27.83-47a12.93,12.93,0,0,1,0-13L551,64.68a12.83,12.83,0,0,1,22-.39l31.48,50.11A12.87,12.87,0,0,1,604.56,127.79Z"/><path class="cls-1" d="M155.26,139.71a66.1,66.1,0,0,1-38,33.92l-14.21,5-.66-1.82a66.67,66.67,0,0,1,41-84.81l14.21-5,.66,1.82A66,66,0,0,1,155.26,139.71Z"/><path class="cls-2" d="M906.8,466.42l-63-125.69L780.12,466.42H700.6l-89-189.95h81.28L744.59,414l65.09-137.49h76L945.15,414l58.06-137.49h74.24L986,466.42Z"/><path class="cls-2" d="M1151,402.17c3.93,22.17,21,31.43,55.27,31.43,25.54,0,42.93-6.74,51.63-16.84l50.5,13.47c-12.62,26.66-46,39.56-101.85,39.56-71.26,0-109.42-19.64-109.42-80,0-60.61,38.16-80,109.42-80,85.58,0,107.75,24.41,107.75,84.74v7.57Zm109.14-30.58c-4.49-18.52-22.72-25.53-53.87-25.53s-49.1,7-53.87,25.53Z"/><path class="cls-2" d="M1377.74,265.25h47.14v60.88c13.75-8.41,34.51-16.27,71-16.27,57,0,93.43,18.8,93.43,80,0,60.6-36.48,80-93.43,80-67.07,0-104.94-17.11-118.13-25.53Zm47.14,159.65c17.95,7.86,40.4,12.62,66.21,12.62,34,0,54.16-14.87,54.16-47.69,0-35.07-20.49-47.42-61.73-47.42-28.34,0-46.58,7.29-58.64,19.64Z"/><path class="cls-2" d="M1621.59,313.23h51.34l51.35,107.46,49.94-107.46h47.14l-75.2,153.19c-13.75,28.06-33.67,45.46-71,45.46-30,0-45.46-9.26-51.63-16.56l18-26.65c6.45,5.89,16.27,10.1,29.18,10.1,14.3,0,26.37-5.61,32.82-16.83Z"/></svg>