<svg id="Camada_1" data-name="Camada 1" xmlns="http://www.w3.org/2000/svg" viewBox="0 0 1828.93 1080"><defs><style>.cls-1{fill:#148ba6;}.cls-2{fill:#f2f2f2;}</style></defs><path class="cls-1" d="M850.27,173.87,704.9,411.46a15.9,15.9,0,0,1-13.64,7.64h-.14a15.86,15.86,0,0,1-13.64-7.83l-34.82-58.81a16,16,0,0,1,0-16.25L783.63,95A16,16,0,0,1,811,94.56L850.17,157A15.89,15.89,0,0,1,850.27,173.87Z"/><path class="cls-1" d="M1043.18,173.82l-242,407.38A16,16,0,0,1,787.45,589a15.81,15.81,0,0,1-13.74-7.88L739,522.59a16.08,16.08,0,0,1-.1-16.15L976.44,95.19a15.78,15.78,0,0,1,13.54-8h.29a15.83,15.83,0,0,1,13.54,7.49L1043,157.14A15.93,15.93,0,0,1,1043.18,173.82Z"/><path class="cls-1" d="M1233.81,173.82l-242,407.38a16,16,0,0,1-27.52,0l-34.67-58.57a16.08,16.08,0,0,1,0-16.15L1167,95.19a16,16,0,0,1,27.37-.49l39.22,62.44A16,16,0,0,1,1233.81,173.82Z"/><path class="cls-1" d="M674,188.67a82.33,82.33,0,0,1-47.4,42.26l-17.7,6.19-.82-2.27a83.07,83.07,0,0,1,51.07-105.67l17.7-6.19.82,2.28A82.27,82.27,0,0,1,674,188.67Z"/><path class="cls-2" d="M516.64,934.55,435.72,773.06,353.89,934.55H251.73l-114.37-244H241.79l66.45,176.62,83.63-176.62h97.64l76.4,176.62L640.5,690.52h95.38l-117.53,244Z"/><path class="cls-2" d="M830.37,852c5,28.48,27,40.37,71,40.37,32.81,0,55.15-8.65,66.33-21.62l64.88,17.3c-16.22,34.24-59.12,50.82-130.85,50.82-91.55,0-140.57-25.23-140.57-102.73,0-77.86,49-102.73,140.57-102.73,109.94,0,138.42,31.36,138.42,108.86V852Zm140.22-39.29c-5.77-23.79-29.19-32.8-69.21-32.8s-63.08,9-69.21,32.8Z"/><path class="cls-2" d="M1121.66,676.1h60.55v78.22c17.66-10.81,44.34-20.91,91.2-20.91,73.17,0,120,24.16,120,102.73,0,77.86-46.86,102.73-120,102.73-86.15,0-134.81-22-151.75-32.8Zm60.55,205.1c23.07,10.09,51.91,16.22,85.07,16.22,43.61,0,69.57-19.11,69.57-61.28,0-45-26.32-60.91-79.3-60.91-36.41,0-59.84,9.37-75.34,25.23Z"/><path class="cls-2" d="M1434.92,737.74h66l66,138,64.16-138h60.56L1595,934.55c-17.66,36-43.25,58.39-91.19,58.39-38.57,0-58.39-11.9-66.33-21.27l23.07-34.24c8.3,7.57,20.91,13,37.49,13,18.38,0,33.89-7.21,42.17-21.63Z"/></svg>