<svg id="Camada_1" data-name="Camada 1" xmlns="http://www.w3.org/2000/svg" viewBox="0 0 1828.93 1080"><defs><style>.cls-1{fill:#148ba6;}.cls-2{fill:#0d0d0d;}</style></defs><path class="cls-1" d="M856.48,173.87,711.11,411.46a15.9,15.9,0,0,1-13.64,7.64h-.15a15.86,15.86,0,0,1-13.63-7.83l-34.82-58.81a16,16,0,0,1,0-16.25L789.84,95a16,16,0,0,1,27.32-.43L856.38,157A15.89,15.89,0,0,1,856.48,173.87Z"/><path class="cls-1" d="M1049.38,173.82,807.44,581.2A16,16,0,0,1,793.66,589a15.8,15.8,0,0,1-13.74-7.88l-34.67-58.57a16.08,16.08,0,0,1-.1-16.15L982.65,95.19a15.78,15.78,0,0,1,13.54-8h.29A15.83,15.83,0,0,1,1010,94.7l39.17,62.44A15.93,15.93,0,0,1,1049.38,173.82Z"/><path class="cls-1" d="M1240,173.82,998,581.2a16,16,0,0,1-27.52,0l-34.68-58.57a16.05,16.05,0,0,1,0-16.15L1173.23,95.19a16,16,0,0,1,27.38-.49l39.22,62.44A16,16,0,0,1,1240,173.82Z"/><path class="cls-1" d="M680.2,188.67a82.28,82.28,0,0,1-47.39,42.26l-17.7,6.19-.82-2.27a83.06,83.06,0,0,1,51.07-105.67l17.7-6.19.82,2.28A82.22,82.22,0,0,1,680.2,188.67Z"/><path class="cls-2" d="M522.85,934.55,441.92,773.06,360.1,934.55H257.94l-114.37-244H248l66.45,176.62,83.63-176.62h97.64l76.4,176.62,74.59-176.62h95.37l-117.52,244Z"/><path class="cls-2" d="M836.58,852c5,28.48,27,40.37,71,40.37,32.8,0,55.15-8.65,66.33-21.62l64.87,17.3c-16.21,34.24-59.11,50.82-130.84,50.82-91.55,0-140.58-25.23-140.58-102.73,0-77.86,49-102.73,140.58-102.73,109.94,0,138.42,31.36,138.42,108.86V852ZM976.8,812.71c-5.77-23.79-29.2-32.8-69.21-32.8s-63.08,9-69.21,32.8Z"/><path class="cls-2" d="M1127.86,676.1h60.56v78.22c17.66-10.81,44.34-20.91,91.2-20.91,73.17,0,120,24.16,120,102.73,0,77.86-46.86,102.73-120,102.73-86.16,0-134.82-22-151.76-32.8Zm60.56,205.1c23.07,10.09,51.9,16.22,85.07,16.22,43.61,0,69.57-19.11,69.57-61.28,0-45-26.32-60.91-79.3-60.91-36.41,0-59.84,9.37-75.34,25.23Z"/><path class="cls-2" d="M1441.13,737.74h66l66,138,64.15-138h60.57l-96.61,196.81c-17.66,36-43.25,58.39-91.19,58.39-38.57,0-58.4-11.9-66.33-21.27l23.07-34.24c8.29,7.57,20.91,13,37.49,13,18.38,0,33.88-7.21,42.17-21.63Z"/></svg>