<svg id="Camada_1" data-name="Camada 1" xmlns="http://www.w3.org/2000/svg" viewBox="0 0 1828.93 1080"><defs><style>.cls-1{fill:#0d0d0d;}</style></defs><path class="cls-1" d="M883.16,173.87,737.79,411.46a15.9,15.9,0,0,1-13.64,7.64H724a15.86,15.86,0,0,1-13.64-7.83l-34.82-58.81a16,16,0,0,1,0-16.25L816.52,95a16,16,0,0,1,27.32-.43L883.06,157A15.89,15.89,0,0,1,883.16,173.87Z"/><path class="cls-1" d="M1076.07,173.82,834.12,581.2A16,16,0,0,1,820.34,589a15.79,15.79,0,0,1-13.73-7.88l-34.68-58.57a16.05,16.05,0,0,1-.09-16.15L1009.33,95.19a15.8,15.8,0,0,1,13.54-8h.29a15.83,15.83,0,0,1,13.54,7.49l39.17,62.44A15.93,15.93,0,0,1,1076.07,173.82Z"/><path class="cls-1" d="M1266.7,173.82l-242,407.38a16,16,0,0,1-27.52,0l-34.67-58.57a16.08,16.08,0,0,1,0-16.15L1199.92,95.19a16,16,0,0,1,27.37-.49l39.22,62.44A16,16,0,0,1,1266.7,173.82Z"/><path class="cls-1" d="M706.89,188.67a82.33,82.33,0,0,1-47.4,42.26l-17.69,6.19-.83-2.27A83.07,83.07,0,0,1,692,129.18l17.7-6.19.82,2.28A82.22,82.22,0,0,1,706.89,188.67Z"/><path class="cls-1" d="M549.53,934.55,468.61,773.06,386.79,934.55H284.63l-114.37-244H274.68l66.45,176.62,83.63-176.62H522.4l76.4,176.62,74.59-176.62h95.38l-117.53,244Z"/><path class="cls-1" d="M863.26,852c5,28.48,27,40.37,71,40.37,32.81,0,55.16-8.65,66.33-21.62l64.88,17.3c-16.22,34.24-59.11,50.82-130.84,50.82-91.56,0-140.58-25.23-140.58-102.73,0-77.86,49-102.73,140.58-102.73,109.93,0,138.41,31.36,138.41,108.86V852Zm140.22-39.29c-5.77-23.79-29.19-32.8-69.21-32.8s-63.08,9-69.2,32.8Z"/><path class="cls-1" d="M1154.55,676.1h60.55v78.22c17.66-10.81,44.34-20.91,91.2-20.91,73.17,0,120,24.16,120,102.73,0,77.86-46.86,102.73-120,102.73-86.15,0-134.81-22-151.75-32.8Zm60.55,205.1c23.07,10.09,51.91,16.22,85.07,16.22,43.62,0,69.57-19.11,69.57-61.28,0-45-26.32-60.91-79.3-60.91-36.41,0-59.84,9.37-75.34,25.23Z"/><path class="cls-1" d="M1467.81,737.74h66l66,138,64.16-138h60.56l-96.61,196.81c-17.66,36-43.25,58.39-91.19,58.39-38.57,0-58.39-11.9-66.32-21.27l23.06-34.24c8.3,7.57,20.91,13,37.49,13,18.38,0,33.89-7.21,42.17-21.63Z"/></svg>