<svg id="Camada_1" data-name="Camada 1" xmlns="http://www.w3.org/2000/svg" viewBox="0 0 1908.94 707.05"><defs><style>.cls-1{fill:#f2f2f2;}</style></defs><path class="cls-1" d="M1281,546.63c-2.56-8.51-17.86-14-40.38-14-24.23,0-40,3.4-40,10.41,0,8.93,13.81,8.93,27.2,8.93,9.14,0,19.13-.21,26.78-.21,42.93,0,62.91,8.29,62.91,34.43,0,25.5-21.25,42.71-80.76,42.71-43.78,0-70.13-11.9-80.12-32.73l38.68-9.13c4.25,6.58,14.45,13.81,44.63,13.81,25.71,0,36.34-3.19,36.34-11.05,0-7.65-11.69-8.93-26.35-8.93-7.65,0-16.37.21-25.51.21-29.54,0-65-6.16-65-36.76,0-23.59,21.89-38.47,81-38.47,48.67,0,69.92,11.69,77.15,29.54Z"/><path class="cls-1" d="M1438.09,624.41V557c0-13-6.38-22.1-25.29-22.1-22.32,0-38.47,5.52-49.31,14.66v74.81H1321V472h42.5v45.69c13.18-6.8,32.73-11.9,56.32-11.9,29.75,0,61,10.42,61,51.22v67.37Z"/><path class="cls-1" d="M1570.06,627c-54,0-85.22-14.88-85.22-60.57,0-45.9,31.24-60.57,85.22-60.57,53.77,0,84.8,14.67,84.8,60.57C1654.86,612.08,1623.83,627,1570.06,627Zm-.21-92c-30.6,0-45.27,9.14-45.27,31.45s14.67,31.45,45.27,31.45c30.18,0,44.84-9.13,44.84-31.45S1600,534.94,1569.85,534.94Z"/><path class="cls-1" d="M1663.36,656.71V508.37h37.19l1.06,11.69c6.8-6.8,25.93-14.24,53.77-14.24,42.08,0,70.56,14.67,70.56,60.57,0,45.69-28.48,60.57-70.56,60.57-23.59,0-40.81-4.68-49.52-11.69v41.44Zm42.5-73.74c8.5,10,20.83,14.87,38.25,14.87,28.48,0,42.08-9.13,42.08-31.45s-13.6-31.45-42.08-31.45c-17.42,0-32.72,5.52-38.25,14.66Z"/><path class="cls-1" d="M495.18,100.52,411.13,237.89a9.18,9.18,0,0,1-7.88,4.42h-.09a9.18,9.18,0,0,1-7.88-4.53l-20.13-34a9.25,9.25,0,0,1,0-9.4l81.5-139.46a9.23,9.23,0,0,1,15.8-.25l22.67,36.12A9.18,9.18,0,0,1,495.18,100.52Z"/><path class="cls-1" d="M606.71,100.5,466.83,336a9.26,9.26,0,0,1-8,4.53,9.14,9.14,0,0,1-7.94-4.56l-20.05-33.86a9.31,9.31,0,0,1-.05-9.34L568.13,55A9.15,9.15,0,0,1,576,50.42h.17A9.14,9.14,0,0,1,584,54.75l22.65,36.1A9.23,9.23,0,0,1,606.71,100.5Z"/><path class="cls-1" d="M716.93,100.5,577,336a9.23,9.23,0,0,1-15.91,0l-20.05-33.86a9.28,9.28,0,0,1,0-9.34L678.32,55a9.23,9.23,0,0,1,15.82-.28l22.68,36.1A9.3,9.3,0,0,1,716.93,100.5Z"/><path class="cls-1" d="M393.27,109.08a47.64,47.64,0,0,1-27.41,24.44l-10.23,3.58-.47-1.32a48,48,0,0,1,29.52-61.09l10.23-3.58.48,1.31A47.58,47.58,0,0,1,393.27,109.08Z"/><path class="cls-1" d="M302.29,540.32,255.5,447l-47.3,93.37H149.13L83,399.23h60.37L181.8,501.35l48.35-102.12H286.6l44.17,102.12L373.9,399.23H429l-68,141.09Z"/><path class="cls-1" d="M483.68,492.59c2.91,16.47,15.63,23.34,41.05,23.34,19,0,31.89-5,38.35-12.5l37.51,10c-9.38,19.79-34.18,29.38-75.65,29.38-52.93,0-81.28-14.59-81.28-59.4,0-45,28.35-59.39,81.28-59.39,63.56,0,80,18.13,80,62.94v5.62Zm81.06-22.71c-3.33-13.76-16.88-19-40-19s-36.47,5.2-40,19Z"/><path class="cls-1" d="M652.08,390.89h35v45.23c10.22-6.25,25.64-12.09,52.73-12.09,42.31,0,69.4,14,69.4,59.39,0,45-27.09,59.4-69.4,59.4-49.81,0-77.94-12.71-87.74-19Zm35,118.58c13.34,5.84,30,9.38,49.19,9.38,25.21,0,40.22-11,40.22-35.43,0-26-15.22-35.21-45.85-35.21-21,0-34.59,5.41-43.56,14.58Z"/><path class="cls-1" d="M833.2,426.53h38.14l38.14,79.82,37.09-79.82h35L925.73,540.32c-10.21,20.84-25,33.76-52.72,33.76-22.3,0-33.76-6.88-38.35-12.3L848,542c4.79,4.37,12.08,7.5,21.67,7.5,10.63,0,19.59-4.17,24.38-12.51Z"/><path class="cls-1" d="M1114.75,425.93l-106,223.62a4.79,4.79,0,0,1-4.1,2.77h-.29a4.71,4.71,0,0,1-4.1-2.28L983.91,624a4.85,4.85,0,0,1-.27-4.64l105.81-223.19a4.73,4.73,0,0,1,4.06-2.77,4.8,4.8,0,0,1,4.4,2.2l16.54,25.68A4.76,4.76,0,0,1,1114.75,425.93Z"/></svg>