<svg id="Camada_1" data-name="Camada 1" xmlns="http://www.w3.org/2000/svg" viewBox="0 0 1908.94 707.05"><defs><style>.cls-1{fill:#0d0d0d;}.cls-2{fill:#148ba6;}</style></defs><path class="cls-1" d="M1281,546.23c-2.55-8.5-17.86-14-40.38-14-24.23,0-40,3.4-40,10.42,0,8.92,13.82,8.92,27.21,8.92,9.13,0,19.12-.21,26.77-.21,42.93,0,62.91,8.29,62.91,34.43,0,25.5-21.25,42.72-80.76,42.72-43.78,0-70.13-11.91-80.12-32.73l38.68-9.14c4.25,6.59,14.45,13.81,44.63,13.81,25.71,0,36.34-3.19,36.34-11,0-7.65-11.69-8.93-26.35-8.93-7.65,0-16.37.22-25.51.22-29.54,0-65-6.17-65-36.77,0-23.59,21.89-38.47,81-38.47,48.67,0,69.92,11.69,77.15,29.54Z"/><path class="cls-1" d="M1438.09,624V556.64c0-13-6.38-22.1-25.29-22.1-22.32,0-38.47,5.53-49.31,14.66V624H1321V471.63h42.5v45.69c13.18-6.8,32.73-11.9,56.32-11.9,29.75,0,61,10.42,61,51.22V624Z"/><path class="cls-1" d="M1570.06,626.56c-54,0-85.22-14.87-85.22-60.57,0-45.9,31.24-60.57,85.22-60.57,53.77,0,84.8,14.67,84.8,60.57C1654.86,611.69,1623.83,626.56,1570.06,626.56Zm-.21-92c-30.6,0-45.27,9.14-45.27,31.45s14.67,31.46,45.27,31.46c30.18,0,44.84-9.14,44.84-31.46S1600,534.54,1569.85,534.54Z"/><path class="cls-1" d="M1663.36,656.32V508h37.19l1.06,11.69c6.8-6.8,25.93-14.24,53.77-14.24,42.08,0,70.56,14.67,70.56,60.57,0,45.7-28.48,60.57-70.56,60.57-23.59,0-40.81-4.67-49.52-11.69v41.45Zm42.5-73.75c8.5,10,20.83,14.88,38.26,14.88,28.47,0,42.08-9.14,42.08-31.46s-13.61-31.45-42.08-31.45c-17.43,0-32.73,5.53-38.26,14.66Z"/><path class="cls-2" d="M495.18,100.13,411.13,237.49a9.18,9.18,0,0,1-7.88,4.42h-.09a9.18,9.18,0,0,1-7.88-4.53l-20.13-34a9.24,9.24,0,0,1,0-9.39l81.5-139.47a9.23,9.23,0,0,1,15.8-.25L495.12,90.4A9.18,9.18,0,0,1,495.18,100.13Z"/><path class="cls-2" d="M606.71,100.1,466.83,335.63a9.24,9.24,0,0,1-8,4.53,9.12,9.12,0,0,1-7.94-4.56l-20.05-33.86a9.29,9.29,0,0,1-.05-9.33L568.13,54.64A9.14,9.14,0,0,1,576,50h.16A9.15,9.15,0,0,1,584,54.36L606.6,90.45A9.23,9.23,0,0,1,606.71,100.1Z"/><path class="cls-2" d="M716.93,100.1,577,335.63a9.23,9.23,0,0,1-15.91,0l-20.05-33.86a9.29,9.29,0,0,1,0-9.33L678.32,54.64a9.22,9.22,0,0,1,15.82-.28l22.68,36.09A9.3,9.3,0,0,1,716.93,100.1Z"/><path class="cls-2" d="M393.27,108.68a47.61,47.61,0,0,1-27.4,24.44l-10.24,3.58-.47-1.32a48,48,0,0,1,29.52-61.09l10.24-3.58.47,1.32A47.56,47.56,0,0,1,393.27,108.68Z"/><path class="cls-1" d="M302.29,539.92,255.5,446.56l-47.3,93.36H149.13L83,398.83h60.37L181.8,501l48.35-102.12H286.6L330.77,501,373.9,398.83H429l-68,141.09Z"/><path class="cls-1" d="M483.68,492.2c2.91,16.46,15.63,23.34,41.05,23.34,19,0,31.89-5,38.35-12.51l37.51,10c-9.38,19.8-34.18,29.38-75.65,29.38-52.93,0-81.28-14.59-81.28-59.39,0-45,28.35-59.4,81.28-59.4,63.56,0,80,18.13,80,62.94v5.63Zm81.06-22.72c-3.33-13.75-16.87-19-40-19s-36.47,5.21-40,19Z"/><path class="cls-1" d="M652.08,390.5h35v45.22c10.21-6.25,25.63-12.09,52.72-12.09,42.31,0,69.4,14,69.4,59.4,0,45-27.09,59.39-69.4,59.39-49.81,0-77.94-12.71-87.74-19Zm35,118.58c13.33,5.83,30,9.37,49.18,9.37,25.21,0,40.22-11,40.22-35.42,0-26-15.22-35.22-45.85-35.22-21,0-34.59,5.41-43.55,14.58Z"/><path class="cls-1" d="M833.2,426.13h38.14L909.48,506l37.09-79.82h35L925.73,539.92c-10.21,20.84-25,33.76-52.72,33.76-22.3,0-33.76-6.88-38.35-12.29L848,541.59c4.79,4.37,12.08,7.5,21.67,7.5,10.63,0,19.59-4.17,24.38-12.5Z"/><path class="cls-1" d="M1114.75,425.53l-106,223.63a4.78,4.78,0,0,1-4.09,2.76h-.3a4.72,4.72,0,0,1-4.1-2.28l-16.35-26.08a4.85,4.85,0,0,1-.27-4.64l105.81-223.19a4.73,4.73,0,0,1,4.06-2.77,4.8,4.8,0,0,1,4.4,2.2l16.54,25.68A4.76,4.76,0,0,1,1114.75,425.53Z"/></svg>